<mxfile host="app.diagrams.net" modified="2023-10-11T05:36:36.655Z" agent="Mozilla/5.0 (X11; Linux x86_64) AppleWebKit/537.36 (KHTML, like Gecko) Chrome/117.0.0.0 Safari/537.36 Edg/117.0.2045.55" etag="PcGIuzl0xDLEwuw4-ZKC" version="22.0.4" type="github">
  <diagram name="Page-1" id="oEGiXwH-ZTEXSlct65jR">
    <mxGraphModel dx="1730" dy="462" grid="1" gridSize="10" guides="1" tooltips="1" connect="1" arrows="1" fold="1" page="1" pageScale="1" pageWidth="850" pageHeight="1100" math="0" shadow="0">
      <root>
        <mxCell id="0" />
        <mxCell id="1" parent="0" />
        <mxCell id="TSAgKFLIx7RcloJ4O9gl-1" value="SHOE ONLINE SHOPPING" style="shape=ellipse;html=1;dashed=0;whiteSpace=wrap;perimeter=ellipsePerimeter;" parent="1" vertex="1">
          <mxGeometry x="340" y="150" width="150" height="150" as="geometry" />
        </mxCell>
        <mxCell id="TSAgKFLIx7RcloJ4O9gl-2" value="ADMIN" style="html=1;dashed=0;whiteSpace=wrap;" parent="1" vertex="1">
          <mxGeometry x="-20" y="210" width="130" height="120" as="geometry" />
        </mxCell>
        <mxCell id="TSAgKFLIx7RcloJ4O9gl-3" value="USER" style="html=1;dashed=0;whiteSpace=wrap;" parent="1" vertex="1">
          <mxGeometry x="700" y="200" width="130" height="80" as="geometry" />
        </mxCell>
        <mxCell id="TSAgKFLIx7RcloJ4O9gl-5" style="edgeStyle=orthogonalEdgeStyle;rounded=0;orthogonalLoop=1;jettySize=auto;html=1;exitX=0;exitY=1;exitDx=0;exitDy=0;entryX=1.031;entryY=0.858;entryDx=0;entryDy=0;entryPerimeter=0;" parent="1" source="TSAgKFLIx7RcloJ4O9gl-18" target="TSAgKFLIx7RcloJ4O9gl-2" edge="1">
          <mxGeometry relative="1" as="geometry" />
        </mxCell>
        <mxCell id="TSAgKFLIx7RcloJ4O9gl-7" style="edgeStyle=orthogonalEdgeStyle;rounded=0;orthogonalLoop=1;jettySize=auto;html=1;exitX=1;exitY=0.5;exitDx=0;exitDy=0;entryX=-0.023;entryY=0.363;entryDx=0;entryDy=0;entryPerimeter=0;" parent="1" source="TSAgKFLIx7RcloJ4O9gl-9" target="TSAgKFLIx7RcloJ4O9gl-3" edge="1">
          <mxGeometry relative="1" as="geometry" />
        </mxCell>
        <mxCell id="TSAgKFLIx7RcloJ4O9gl-8" style="edgeStyle=orthogonalEdgeStyle;rounded=0;orthogonalLoop=1;jettySize=auto;html=1;exitX=0;exitY=0.75;exitDx=0;exitDy=0;entryX=0.907;entryY=0.793;entryDx=0;entryDy=0;entryPerimeter=0;" parent="1" source="TSAgKFLIx7RcloJ4O9gl-11" target="TSAgKFLIx7RcloJ4O9gl-1" edge="1">
          <mxGeometry relative="1" as="geometry" />
        </mxCell>
        <mxCell id="TSAgKFLIx7RcloJ4O9gl-10" value="" style="edgeStyle=orthogonalEdgeStyle;rounded=0;orthogonalLoop=1;jettySize=auto;html=1;exitX=1;exitY=0.5;exitDx=0;exitDy=0;entryX=-0.023;entryY=0.363;entryDx=0;entryDy=0;entryPerimeter=0;" parent="1" source="TSAgKFLIx7RcloJ4O9gl-1" target="TSAgKFLIx7RcloJ4O9gl-9" edge="1">
          <mxGeometry relative="1" as="geometry">
            <mxPoint x="490" y="225" as="sourcePoint" />
            <mxPoint x="697" y="229" as="targetPoint" />
          </mxGeometry>
        </mxCell>
        <mxCell id="TSAgKFLIx7RcloJ4O9gl-9" value="Response" style="text;html=1;align=center;verticalAlign=middle;resizable=0;points=[];autosize=1;strokeColor=none;fillColor=none;" parent="1" vertex="1">
          <mxGeometry x="560" y="200" width="80" height="30" as="geometry" />
        </mxCell>
        <mxCell id="TSAgKFLIx7RcloJ4O9gl-12" value="" style="edgeStyle=orthogonalEdgeStyle;rounded=0;orthogonalLoop=1;jettySize=auto;html=1;exitX=0;exitY=0.75;exitDx=0;exitDy=0;entryX=0.907;entryY=0.793;entryDx=0;entryDy=0;entryPerimeter=0;" parent="1" source="TSAgKFLIx7RcloJ4O9gl-3" target="TSAgKFLIx7RcloJ4O9gl-11" edge="1">
          <mxGeometry relative="1" as="geometry">
            <mxPoint x="700" y="260" as="sourcePoint" />
            <mxPoint x="476" y="269" as="targetPoint" />
          </mxGeometry>
        </mxCell>
        <mxCell id="TSAgKFLIx7RcloJ4O9gl-11" value="Request" style="text;html=1;align=center;verticalAlign=middle;resizable=0;points=[];autosize=1;strokeColor=none;fillColor=none;" parent="1" vertex="1">
          <mxGeometry x="560" y="245" width="70" height="30" as="geometry" />
        </mxCell>
        <mxCell id="TSAgKFLIx7RcloJ4O9gl-16" value="" style="edgeStyle=orthogonalEdgeStyle;rounded=0;orthogonalLoop=1;jettySize=auto;html=1;exitX=1;exitY=0.5;exitDx=0;exitDy=0;entryX=0.013;entryY=0.6;entryDx=0;entryDy=0;entryPerimeter=0;" parent="1" source="TSAgKFLIx7RcloJ4O9gl-2" target="TSAgKFLIx7RcloJ4O9gl-13" edge="1">
          <mxGeometry relative="1" as="geometry">
            <mxPoint x="110" y="270" as="sourcePoint" />
            <mxPoint x="342" y="240" as="targetPoint" />
            <Array as="points" />
          </mxGeometry>
        </mxCell>
        <mxCell id="TSAgKFLIx7RcloJ4O9gl-13" value="login info" style="text;html=1;align=center;verticalAlign=middle;resizable=0;points=[];autosize=1;strokeColor=none;fillColor=none;" parent="1" vertex="1">
          <mxGeometry x="170" y="170" width="70" height="30" as="geometry" />
        </mxCell>
        <mxCell id="TSAgKFLIx7RcloJ4O9gl-17" style="edgeStyle=orthogonalEdgeStyle;rounded=0;orthogonalLoop=1;jettySize=auto;html=1;entryX=0.007;entryY=0.547;entryDx=0;entryDy=0;entryPerimeter=0;" parent="1" source="TSAgKFLIx7RcloJ4O9gl-13" target="TSAgKFLIx7RcloJ4O9gl-1" edge="1">
          <mxGeometry relative="1" as="geometry" />
        </mxCell>
        <mxCell id="TSAgKFLIx7RcloJ4O9gl-19" value="" style="edgeStyle=orthogonalEdgeStyle;rounded=0;orthogonalLoop=1;jettySize=auto;html=1;exitX=0;exitY=1;exitDx=0;exitDy=0;entryX=1.031;entryY=0.858;entryDx=0;entryDy=0;entryPerimeter=0;" parent="1" source="TSAgKFLIx7RcloJ4O9gl-1" target="TSAgKFLIx7RcloJ4O9gl-18" edge="1">
          <mxGeometry relative="1" as="geometry">
            <mxPoint x="362" y="278" as="sourcePoint" />
            <mxPoint x="114" y="313" as="targetPoint" />
          </mxGeometry>
        </mxCell>
        <mxCell id="TSAgKFLIx7RcloJ4O9gl-18" value="Reply" style="text;html=1;align=center;verticalAlign=middle;resizable=0;points=[];autosize=1;strokeColor=none;fillColor=none;" parent="1" vertex="1">
          <mxGeometry x="210" y="270" width="50" height="30" as="geometry" />
        </mxCell>
        <mxCell id="1_Eq_lJcl7Pn7y9gRFaq-1" value="Njekwu Kosiso Anointed&lt;br&gt;&lt;br&gt;2020/242932" style="text;html=1;align=center;verticalAlign=middle;resizable=0;points=[];autosize=1;strokeColor=none;fillColor=none;" vertex="1" parent="1">
          <mxGeometry y="30" width="150" height="60" as="geometry" />
        </mxCell>
      </root>
    </mxGraphModel>
  </diagram>
</mxfile>
